# xmcd
#
# Track frame offsets:
#	150
#	17574
#	35638
#	60783
#	77443
#	94961
#	115738
#	132279
#	151485
#	175337
#	195199
#	219263
#	237465
#
# Disc length: 3431 seconds
#
# Revision: 1
# Processed by: cddbd v1.5.2PL0 Copyright (c) Steve Scherf et al.
# Submitted via: audiograbber 1.83.01
#
DISCID=9c0d650d
DTITLE=Wirtz - auf die Plätze fertig los! Tour - Live in Berlin 2015 [DVD+2CD] 
DTITLE=[Box-Set] [CD 2)
DYEAR=2015
DGENRE=Deutsch Rock
TTITLE0=Sag es (Live 2015 in Berlin)
TTITLE1=Wenn sie diesen Tango hört (Live 2015 in Berlin)
TTITLE2=Scherben (Live 2015 in Berlin)
TTITLE3=Wenn du willst (Live 2015 in Berlin)
TTITLE4=LMAA (Live 2015 in Berlin)
TTITLE5=Wo ich steh (Live 2015 in Berlin)
TTITLE6=Meinen Namen (Live 2015 in Berlin)
TTITLE7=Andrer Stern (Live 2015 in Berlin)
TTITLE8=Mantra (Live 2015 in Berlin)
TTITLE9=Das nächste mal (Live 2015 in Berlin)
TTITLE10=Keine Angst (Live 2015 in Berlin)
TTITLE11=Mon amour (Live 2015 in Berlin)
TTITLE12=Nada brahma (Live 2015 in Berlin)
EXTD=
EXTT0=
EXTT1=
EXTT2=
EXTT3=
EXTT4=
EXTT5=
EXTT6=
EXTT7=
EXTT8=
EXTT9=
EXTT10=
EXTT11=
EXTT12=
PLAYORDER=
